#!OML:ASF E:\I on waltz\AllaLogoMonkeySwing\Project 1\Capture day 1\Session 1\Subject1.ASF
:FULLY-SPECIFIED
:DEGREES
745
root 1.54796 17.7728 5.76827 -0.108427 -0.295586 -1.66518
lowerback 2.97605 0.771022 -1.03947
upperback -2.29177 1.03819 1.54861
thorax -4.0792 0.570203 2.11377
lowerneck -14.4375 2.80563 1.56352
upperneck 16.7825 4.26494 -3.91044
head 7.67373 1.7629 -1.08114
rclavicle -4.22417e-016 -6.16232e-015
rhumerus -32.1924 -26.4018 -76.7215
rradius 19.8077
rwrist 11.4265
rhand -7.81498 -36.6721
rfingers 7.12502
rthumb 18.0869 -65.8512
lclavicle -4.22417e-016 -6.16232e-015
lhumerus -41.7794 25.2582 77.0207
lradius 31.0848
lwrist -8.62984
lhand -5.29083 -13.2067
lfingers 7.12502
lthumb 20.514 15.7295
rfemur 2.15218 1.5356 21.9984
rtibia 16.9037
rfoot -16.6514 -12.3224
rtoes 17.9427
lfemur 4.87147 -0.833896 -17.9966
ltibia 11.6507
lfoot -16.1626 3.96943
ltoes -28.4262
746
root 1.55078 17.7736 5.76733 -0.114978 -0.288964 -1.73331
lowerback 3.03312 0.795147 -0.936026
upperback -2.30785 1.07632 1.57195
thorax -4.12841 0.587053 2.07651
lowerneck -14.4416 2.77646 1.49072
upperneck 16.922 4.24066 -3.87536
head 7.71738 1.7481 -1.06008
rclavicle 3.47873e-015 -1.07344e-014
rhumerus -32.0304 -26.0127 -77.0077
rradius 20.1378
rwrist 10.8945
rhand -7.79282 -36.8142
rfingers 7.12502
rthumb 18.1082 -65.9913
lclavicle 3.47873e-015 -1.07344e-014
lhumerus -41.6226 25.0091 77.1262
lradius 31.3865
lwrist -8.42865
lhand -5.18965 -12.782
lfingers 7.12502
lthumb 20.6112 16.1437
rfemur 2.1445 1.67106 22.0886
rtibia 16.9413
rfoot -16.7575 -12.4399
rtoes 18.145
lfemur 4.90416 -0.821995 -17.9274
ltibia 11.5886
lfoot -16.1467 3.94136
ltoes -28.4362
747
root 1.55543 17.7727 5.76499 -0.101577 -0.338812 -1.6838
lowerback 3.08126 0.828196 -0.972012
upperback -2.32849 1.11888 1.5729
thorax -4.17982 0.609817 2.09418
lowerneck -14.478 2.74573 1.4129
upperneck 17.0899 4.2093 -3.80479
head 7.7751 1.73215 -1.02687
rclavicle -2.36305e-014 -1.96797e-014
rhumerus -31.8916 -25.8427 -77.1666
rradius 20.3468
rwrist 10.502
rhand -7.83461 -36.7042
rfingers 7.12502
rthumb 18.068 -65.885
lclavicle -2.36305e-014 -1.96797e-014
lhumerus -41.4873 24.8753 77.1983
lradius 31.7151
lwrist -8.2939
lhand -5.24262 -12.944
lfingers 7.12502
lthumb 20.5603 15.9872
rfemur 2.1151 1.75789 22.014
rtibia 16.9608
rfoot -16.7543 -12.4249
rtoes 18.2293
lfemur 4.89599 -0.796552 -18.008
ltibia 11.5779
lfoot -16.1482 3.9723
ltoes -28.3507
748
root 1.55994 17.7733 5.76212 -0.0726132 -0.377599 -1.56912
lowerback 3.10632 0.855404 -1.08586
upperback -2.35235 1.14909 1.55554
thorax -4.22227 0.628431 2.13774
lowerneck -14.4876 2.71806 1.36065
upperneck 17.2299 4.17138 -3.71572
head 7.81879 1.71731 -0.99282
rclavicle 9.0447e-015 4.37326e-015
rhumerus -31.7336 -25.7177 -77.3076
rradius 20.4395
rwrist 10.1976
rhand -8.0174 -36.5065
rfingers 7.12502
rthumb 17.8921 -65.7035
lclavicle 9.0447e-015 4.37326e-015
lhumerus -41.3618 24.7162 77.3169
lradius 32.0923
lwrist -7.91831
lhand -5.44623 -13.3695
lfingers 7.12502
lthumb 20.3646 15.5827
rfemur 2.058 1.78374 21.8683
rtibia 16.9667
rfoot -16.6659 -12.4064
rtoes 17.872
lfemur 4.83472 -0.760335 -18.1518
ltibia 11.6269
lfoot -16.168 3.9576
ltoes -28.2516
749
root 1.56549 17.7757 5.75778 -0.0750774 -0.351134 -1.61197
lowerback 3.17356 0.868283 -0.996866
upperback -2.36362 1.17106 1.56544
thorax -4.27144 0.637324 2.09551
lowerneck -14.4989 2.70761 1.33489
upperneck 17.3588 4.15582 -3.65306
head 7.86101 1.71247 -0.969305
rclavicle 1.37037e-014 -1.78906e-015
rhumerus -31.5492 -25.4369 -77.5326
rradius 20.5276
rwrist 9.8977
rhand -8.16169 -36.432
rfingers 7.12502
rthumb 17.7533 -65.6415
lclavicle 1.37037e-014 -1.78906e-015
lhumerus -41.1961 24.5609 77.4575
lradius 32.4684
lwrist -7.41153
lhand -5.56487 -13.4481
lfingers 7.12502
lthumb 20.2506 15.5163
rfemur 2.01872 1.74807 21.9039
rtibia 16.9842
rfoot -16.5859 -12.4661
rtoes 17.3825
lfemur 4.79286 -0.737489 -18.1091
ltibia 11.6768
lfoot -16.1922 3.86841
ltoes -28.1823
750
root 1.57163 17.7769 5.75194 -0.0704823 -0.280071 -1.70209
lowerback 3.23975 0.869425 -0.855035
upperback -2.37465 1.18047 1.58142
thorax -4.31814 0.638405 2.03074
lowerneck -14.5384 2.70798 1.30142
upperneck 17.5094 4.15122 -3.55883
head 7.91495 1.71481 -0.932455
rclavicle -1.07965e-014 -1.07344e-014
rhumerus -31.3892 -25.0847 -77.7902
rradius 20.6914
rwrist 9.60294
rhand -8.05103 -36.464
rfingers 7.12502
rthumb 17.8597 -65.6639
lclavicle -1.07965e-014 -1.07344e-014
lhumerus -41.0104 24.3968 77.6033
lradius 32.8356
lwrist -6.97357
lhand -5.70685 -13.3987
lfingers 7.12502
lthumb 20.1141 15.58
rfemur 1.98583 1.68215 21.9833
rtibia 16.9937
rfoot -16.5376 -12.5079
rtoes 17.2764
lfemur 4.73837 -0.739036 -18.0193
ltibia 11.7213
lfoot -16.2198 3.80858
ltoes -28.2815
751
root 1.57544 17.7777 5.74748 -0.0273194 -0.20672 -1.68353
lowerback 3.2577 0.871962 -0.862884
upperback -2.40205 1.18309 1.56513
thorax -4.35673 0.640132 2.01774
lowerneck -14.5796 2.70585 1.29665
upperneck 17.6545 4.13831 -3.47544
head 7.96804 1.71417 -0.904775
rclavicle 1.83876e-014 1.43125e-014
rhumerus -31.2819 -24.7487 -78.0429
rradius 20.8771
rwrist 9.30543
rhand -7.98646 -36.5736
rfingers 7.12502
rthumb 17.9219 -65.7678
lclavicle 1.83876e-014 1.43125e-014
lhumerus -40.8579 24.2091 77.7345
lradius 33.2071
lwrist -6.57006
lhand -5.88565 -13.4626
lfingers 7.12502
lthumb 19.9423 15.5341
rfemur 1.92661 1.64099 21.9544
rtibia 16.9992
rfoot -16.5454 -12.5559
rtoes 16.9785
lfemur 4.64641 -0.723045 -18.0418
ltibia 11.7646
lfoot -16.2559 3.73945
ltoes -28.3759
752
root 1.57792 17.7777 5.74485 -0.0243067 -0.162248 -1.62846
lowerback 3.28935 0.893124 -0.909947
upperback -2.40791 1.20778 1.53577
thorax -4.38222 0.65356 2.01158
lowerneck -14.5866 2.70137 1.32273
upperneck 17.7326 4.12825 -3.46996
head 7.99538 1.71064 -0.90815
rclavicle 1.29086e-014 8.15017e-015
rhumerus -31.1822 -24.5105 -78.2532
rradius 20.956
rwrist 9.11021
rhand -8.12626 -36.4671
rfingers 7.12502
rthumb 17.7874 -65.6735
lclavicle 1.29086e-014 8.15017e-015
lhumerus -40.6729 23.969 77.9206
lradius 33.5648
lwrist -6.16373
lhand -6.06547 -13.5134
lfingers 7.12502
lthumb 19.7694 15.5013
rfemur 1.88945 1.64441 21.8938
rtibia 17.0465
rfoot -16.5489 -12.6155
rtoes 16.8773
lfemur 4.62617 -0.699969 -18.1021
ltibia 11.7623
lfoot -16.2569 3.66751
ltoes -28.3441
753
root 1.5811 17.7761 5.74182 -0.0558625 -0.132007 -1.59112
lowerback 3.32811 0.927499 -0.930793
upperback -2.37978 1.2514 1.5133
thorax -4.37677 0.675249 1.9965
lowerneck -14.561 2.67948 1.41399
upperneck 17.7253 4.10081 -3.58691
head 7.99227 1.69264 -0.965318
rclavicle 1.01504e-014 3.16068e-014
rhumerus -31.0744 -24.3622 -78.4376
rradius 20.9822
rwrist 8.96247
rhand -8.27955 -36.2939
rfingers 7.12502
rthumb 17.6398 -65.5137
lclavicle 1.01504e-014 3.16068e-014
lhumerus -40.4059 23.5806 78.2296
lradius 33.9246
lwrist -5.64236
lhand -6.20147 -13.4916
lfingers 7.12502
lthumb 19.6387 15.5365
rfemur 1.88109 1.65032 21.8451
rtibia 17.11
rfoot -16.5439 -12.6488
rtoes 17.0749
lfemur 4.65336 -0.688945 -18.1537
ltibia 11.7408
lfoot -16.2721 3.65442
ltoes -28.4731
754
root 1.58595 17.7743 5.73699 -0.0678862 -0.0897489 -1.5524
lowerback 3.36582 0.949504 -0.942342
upperback -2.3639 1.27896 1.48821
thorax -4.38249 0.688794 1.97456
lowerneck -14.4884 2.65453 1.58417
upperneck 17.6755 4.06758 -3.79253
head 7.97005 1.66962 -1.06608
rclavicle 1.55301e-015 3.18055e-015
rhumerus -30.9997 -24.1837 -78.6223
rradius 21.0017
rwrist 8.79572
rhand -8.33884 -36.2789
rfingers 7.12502
rthumb 17.5828 -65.5038
lclavicle 1.55301e-015 3.18055e-015
lhumerus -40.2073 23.2047 78.4905
lradius 34.2803
lwrist -5.1501
lhand -6.24064 -13.6458
lfingers 7.12502
lthumb 19.601 15.3861
rfemur 1.8716 1.62975 21.7849
rtibia 17.1362
rfoot -16.584 -12.6627
rtoes 17.3104
lfemur 4.62737 -0.665965 -18.212
ltibia 11.7734
lfoot -16.3159 3.63725
ltoes -28.7718
755
root 1.59118 17.7742 5.73101 -0.0796619 -0.0166204 -1.57678
lowerback 3.42778 0.933421 -0.890705
upperback -2.36312 1.26019 1.49034
thorax -4.4149 0.67811 1.94823
lowerneck -14.4268 2.65772 1.65618
upperneck 17.6605 4.06843 -3.85711
head 7.95701 1.66955 -1.09993
rclavicle -4.37326e-015 7.55382e-015
rhumerus -30.9523 -24.1074 -78.7239
rradius 20.9648
rwrist 8.87165
rhand -8.27593 -36.2584
rfingers 7.12502
rthumb 17.6433 -65.4779
lclavicle -4.37326e-015 7.55382e-015
lhumerus -40.1299 22.8928 78.6966
lradius 34.6604
lwrist -4.69931
lhand -6.31368 -13.8987
lfingers 7.12502
lthumb 19.5308 15.1403
rfemur 1.87792 1.60132 21.7967
rtibia 17.1233
rfoot -16.5597 -12.683
rtoes 17.5391
lfemur 4.56616 -0.650673 -18.1902
ltibia 11.8632
lfoot -16.3609 3.54698
ltoes -28.7966
756
root 1.59539 17.7756 5.725 -0.0928333 0.0435706 -1.68238
lowerback 3.4758 0.905034 -0.812263
upperback -2.34334 1.22876 1.55198
thorax -4.41999 0.661014 1.96972
lowerneck -14.4481 2.69077 1.63459
upperneck 17.7137 4.1181 -3.84219
head 7.97925 1.69219 -1.08555
rclavicle -3.21783e-015 -1.63003e-014
rhumerus -30.8669 -24.0333 -78.7947
rradius 20.9174
rwrist 9.03081
rhand -8.12148 -36.2411
rfingers 7.12502
rthumb 17.792 -65.4472
lclavicle -3.21783e-015 -1.63003e-014
lhumerus -40.0314 22.631 78.9599
lradius 35.053
lwrist -4.318
lhand -6.43854 -13.935
lfingers 7.12502
lthumb 19.4107 15.1162
rfemur 1.90071 1.6397 21.9137
rtibia 17.0678
rfoot -16.358 -12.7846
rtoes 16.9219
lfemur 4.47926 -0.60198 -18.061
ltibia 11.9977
lfoot -16.4642 3.4025
ltoes -28.5136
757
root 1.60017 17.7774 5.71864 -0.0629516 0.08305 -1.77571
lowerback 3.47502 0.903706 -0.748046
upperback -2.3295 1.23258 1.60714
thorax -4.4052 0.661701 1.99055
lowerneck -14.4402 2.7231 1.62257
upperneck 17.7482 4.16605 -3.83689
head 7.99037 1.71438 -1.07644
rclavicle -5.72748e-015 1.17283e-014
rhumerus -30.7732 -23.8696 -78.8894
rradius 20.8626
rwrist 8.98131
rhand -8.09953 -36.1976
rfingers 7.12502
rthumb 17.8131 -65.4017
lclavicle -5.72748e-015 1.17283e-014
lhumerus -39.8706 22.3846 79.2428
lradius 35.3714
lwrist -4.08663
lhand -6.53908 -13.9053
lfingers 7.12502
lthumb 19.3141 15.1556
rfemur 1.89722 1.6803 22.0095
rtibia 16.968
rfoot -16.4327 -12.8659
rtoes 16.9789
lfemur 4.3222 -0.521907 -17.9483
ltibia 12.1636
lfoot -16.5953 3.27937
ltoes -28.273
758
root 1.60718 17.7799 5.71178 0.00430467 0.159557 -1.8254
lowerback 3.46901 0.906346 -0.663554
upperback -2.34863 1.24138 1.61896
thorax -4.42041 0.663925 1.95464
lowerneck -14.3638 2.72228 1.52844
upperneck 17.7014 4.16103 -3.71901
head 7.95628 1.71899 -1.0234
rclavicle 1.12935e-014 7.15625e-015
rhumerus -30.7625 -23.8269 -78.9355
rradius 20.8103
rwrist 8.95405
rhand -8.17444 -36.1817
rfingers 7.12502
rthumb 17.741 -65.3924
lclavicle 1.12935e-014 7.15625e-015
lhumerus -39.739 22.0919 79.5168
lradius 35.6307
lwrist -3.83104
lhand -6.60588 -13.9588
lfingers 7.12502
lthumb 19.2498 15.1084
rfemur 1.85526 1.58081 22.0247
rtibia 16.8685
rfoot -16.415 -12.8157
rtoes 17.4034
lfemur 4.13592 -0.564137 -17.9069
ltibia 12.3006
lfoot -16.6625 3.22171
ltoes -28.0563
